# xmcd CD database file
#
# Track frame offsets:
#	150
#	13567
#	38147
#	51717
#	69515
#	90980
#	105850
#	123530
#	139082
#	155567
#	179830
#	195900
#
# Disc length: 2844 seconds
#
# Revision: 0
# Processed by: cddbd v1.5.1PL0 Copyright (c) Steve Scherf et al.
# Submitted via: CDex 1.51
#
DISCID=9f0b1a0c
DTITLE=憂歌団 - お歳暮
DYEAR=1997
DGENRE=Blues
TTITLE0=気分上々
TTITLE1=石狩挽歌
TTITLE2=あれからゾンビ
TTITLE3=みんな急げ
TTITLE4=パチンコ〜ランラン・ブルース
TTITLE5=ワーク・ソング
TTITLE6=Gee Baby, Ain't Good To You
TTITLE7=あの橋の真ん中で
TTITLE8=風のうわさに
TTITLE9=ミナミの楽園
TTITLE10=苦労の缶詰
TTITLE11=イヤンなっちゃう節
EXTD=YEAR: 1997
EXTT0=
EXTT1=
EXTT2=
EXTT3=
EXTT4=
EXTT5=
EXTT6=
EXTT7=
EXTT8=
EXTT9=
EXTT10=
EXTT11=
PLAYORDER=
